HIERARCHY
ROOT Hips
{
	OFFSET 0.000000 0.000000 0.000000
	CHANNELS 6 Xposition Yposition Zposition Zrotation Yrotation Xrotation 
	JOINT LHipJoint
	{
		OFFSET 0.000000 0.000000 0.000000
		CHANNELS 3 Zrotation Yrotation Xrotation
		JOINT LeftUpLeg
		{
			OFFSET 1.363060 -1.794630 0.839290
			CHANNELS 3 Zrotation Yrotation Xrotation
			JOINT LeftLeg
			{
				OFFSET 2.448110 -6.726130 0.000000
				CHANNELS 3 Zrotation Yrotation Xrotation
				JOINT LeftFoot
				{
					OFFSET 2.562200 -7.039590 0.000000
					CHANNELS 3 Zrotation Yrotation Xrotation
					JOINT LeftToeBase
					{
						OFFSET 0.157640 -0.433110 2.322550
						CHANNELS 3 Zrotation Yrotation Xrotation
						End Site
						{
							OFFSET 0.000000 0.000000 0.000000
						}
					}
				}
			}
		}
	}
	JOINT RHipJoint
	{
		OFFSET 0.000000 0.000000 0.000000
		CHANNELS 3 Zrotation Yrotation Xrotation
		JOINT RightUpLeg
		{
			OFFSET -1.305520 -1.794630 0.839290
			CHANNELS 3 Zrotation Yrotation Xrotation
			JOINT RightLeg
			{
				OFFSET -2.542530 -6.985550 0.000000
				CHANNELS 3 Zrotation Yrotation Xrotation
				JOINT RightFoot
				{
					OFFSET -2.568260 -7.056230 0.000000
					CHANNELS 3 Zrotation Yrotation Xrotation
					JOINT RightToeBase
					{
						OFFSET -0.164730 -0.452590 2.363150
						CHANNELS 3 Zrotation Yrotation Xrotation
						End Site
						{
							OFFSET 0.000000 0.000000 0.000000
						}
					}
				}
			}
		}
	}
}
MOTION
Frames: 25
Frame Time: 0.008333
5.157012 17.350582 1.164548 -176.482491 -61.693970 -174.401394 -12.467366 3.702854 -1.469373 -7.732016 34.610359 -12.791710 -3.387328 -1.022266 -2.700596 1.131480 8.949937 -0.552987 1.032200 -0.000000 -27.359700 8.272519 -1.703075 5.744175 4.471797 9.828996 -12.149282 3.589938 1.889197 -2.005826 1.437728 7.645845 5.153613 0.954300 -0.000000 -37.962900
5.161972 17.346345 1.163858 -176.787659 -61.541238 -174.220221 -12.449661 3.673793 -1.544898 -7.751294 34.588234 -12.689243 -3.377500 -1.005823 -2.357183 1.164881 9.192396 -0.772947 1.022600 0.000000 -27.315800 8.288861 -1.700093 5.719351 4.314024 9.933498 -12.091943 3.557057 1.854435 -1.874201 1.433702 7.731464 5.004838 0.966400 0.000000 -37.959900
5.168930 17.342509 1.161686 -177.092918 -61.421622 -174.013555 -12.426526 3.639166 -1.614733 -7.797949 34.550217 -12.644822 -3.369819 -0.990413 -1.996356 1.197159 9.423097 -0.985150 1.012000 -0.000000 -27.263800 8.307013 -1.699974 5.697489 4.160148 10.016402 -12.088889 3.524094 1.816970 -1.719449 1.430833 7.828087 4.855621 0.980800 0.000000 -37.960300
5.177189 17.339413 1.158005 -177.388753 -61.345251 -173.783852 -12.399559 3.600698 -1.673655 -7.873816 34.496903 -12.661686 -3.364685 -0.977658 -1.639519 1.226556 9.631122 -1.176376 1.001700 0.000000 -27.202600 8.325522 -1.704609 5.682472 4.013980 10.075178 -12.142113 3.492157 1.778654 -1.552458 1.428915 7.927836 4.714983 0.996400 -0.000000 -37.959800
5.186180 17.337286 1.152876 -177.667333 -61.316426 -173.535522 -12.369801 3.559573 -1.718661 -7.977670 34.426017 -12.736817 -3.361686 -0.968764 -1.307657 1.252200 9.811919 -1.336293 0.993800 -0.000001 -27.131100 8.343609 -1.714241 5.675954 3.879308 10.110488 -12.248452 3.462229 1.741333 -1.386609 1.427710 8.023285 4.591717 1.012300 0.000001 -37.951000
5.195148 17.336289 1.146433 -177.920004 -61.335448 -173.273080 -12.338675 3.517372 -1.747684 -8.106073 34.335699 -12.862832 -3.360254 -0.964593 -1.018291 1.273789 9.964773 -1.458273 0.989900 0.000000 -27.047600 8.360391 -1.728887 5.678883 3.758528 10.124700 -12.399833 3.435161 1.706938 -1.236416 1.426932 8.107162 4.494057 1.027600 0.000000 -37.932600
5.203682 17.336448 1.138910 -178.143256 -61.400329 -173.003014 -12.307307 3.475303 -1.759966 -8.253220 34.222990 -13.028124 -3.359351 -0.965465 -0.783886 1.291648 10.093062 -1.539410 0.991300 0.000000 -26.951300 8.375200 -1.747818 5.690980 3.653693 10.121486 -12.583402 3.411492 1.677088 -1.115822 1.426204 8.173075 4.427462 1.041601 0.000000 -37.901200
5.211398 17.337680 1.130547 -178.334314 -61.507305 -172.732090 -12.276683 3.434300 -1.756023 -8.411826 34.085759 -13.218798 -3.357991 -0.971408 -0.611274 1.306384 10.201515 -1.581460 0.998700 0.000000 -26.842600 8.387578 -1.770152 5.711242 3.565576 10.105155 -12.784514 3.391451 1.653050 -1.036432 1.425070 8.215836 4.394009 1.053300 0.000000 -37.854000
5.218046 17.339748 1.121638 -178.491232 -61.652094 -172.468013 -12.247461 3.394755 -1.737532 -8.573524 33.923566 -13.421513 -3.355371 -0.982047 -0.500288 1.318634 10.294490 -1.589624 1.011600 -0.000000 -26.723100 8.397373 -1.795046 5.737990 3.494389 10.079549 -12.987968 3.374960 1.635529 -1.005949 1.423017 8.231671 4.392585 1.062000 0.000000 -37.791600
5.223676 17.342374 1.112489 -178.615398 -61.830790 -172.219450 -12.219878 3.356545 -1.707419 -8.728967 33.736274 -13.620731 -3.350500 -0.996740 -0.446568 1.329245 10.377722 -1.571199 1.029300 -0.000000 -26.595800 8.404935 -1.821415 5.768414 3.440282 10.047249 -13.178474 3.361643 1.624495 -1.027439 1.419619 8.219668 4.418860 1.067000 0.000000 -37.715600
5.228135 17.345179 1.103325 -178.706888 -62.038677 -171.989831 -12.193893 3.319378 -1.668128 -8.873389 33.527013 -13.811008 -3.343488 -1.014879 -0.439610 1.338600 10.452688 -1.536219 1.050000 0.000000 -26.465501 8.410368 -1.849023 5.801876 3.401430 10.013697 -13.348746 3.350947 1.619780 -1.099422 1.414269 8.177828 4.465481 1.067200 -0.000000 -37.625500
5.231771 17.347848 1.094355 -178.770033 -62.271451 -171.785352 -12.169174 3.282582 -1.622665 -9.000353 33.298365 -13.983493 -3.333918 -1.035677 -0.468796 1.347270 10.522718 -1.493748 1.072100 0.000000 -26.337600 8.414330 -1.877179 5.836188 3.376903 9.980330 -13.491625 3.342191 1.620431 -1.215307 1.406659 8.108267 4.523266 1.062100 0.000001 -37.523000
5.234852 17.350069 1.085877 -178.805027 -62.524558 -171.614033 -12.145793 3.245897 -1.574299 -9.102540 33.054916 -14.127666 -3.321443 -1.058191 -0.523901 1.355639 10.590148 -1.450896 1.094200 0.000000 -26.217500 8.417559 -1.905352 5.868367 3.366625 9.945980 -13.599691 3.334805 1.625022 -1.364896 1.396819 8.015942 4.585035 1.052000 0.000000 -37.415199
5.237506 17.351583 1.077834 -178.816992 -62.791308 -171.473223 -12.123351 3.209251 -1.524318 -9.181890 32.803537 -14.248524 -3.307081 -1.081762 -0.593268 1.363600 10.652901 -1.414939 1.114600 -0.000000 -26.110700 8.420180 -1.933287 5.899173 3.367980 9.913722 -13.679341 3.328316 1.632622 -1.535461 1.384762 7.904574 4.640541 1.036700 0.000000 -37.300001
5.240099 17.352288 1.070413 -178.807201 -63.065979 -171.369093 -12.102257 3.172853 -1.475585 -9.233858 32.552863 -14.340003 -3.291119 -1.105257 -0.669356 1.370868 10.708761 -1.388883 1.132000 0.000000 -26.023800 8.422603 -1.960045 5.925899 3.381590 9.880348 -13.728243 3.322495 1.641674 -1.713328 1.370968 7.781691 4.684289 1.017399 -0.000000 -37.184500
5.242825 17.352125 1.063587 -178.779802 -63.342720 -171.299074 -12.082533 3.136997 -1.429293 -9.261534 32.311564 -14.407573 -3.274709 -1.127962 -0.745456 1.376866 10.753255 -1.374134 1.145500 -0.000001 -25.960800 8.424843 -1.985113 5.948543 3.406155 9.845037 -13.754317 3.317255 1.651094 -1.885263 1.355993 7.654003 4.710887 0.995100 -0.000000 -37.070200
5.245789 17.351153 1.057276 -178.737493 -63.617755 -171.260784 -12.064508 3.102050 -1.386767 -9.267125 32.088727 -14.454999 -3.258978 -1.149318 -0.818086 1.380689 10.780538 -1.368729 1.154600 0.000000 -25.925100 8.426923 -2.008255 5.966550 3.441090 9.804708 -13.763719 3.312650 1.659907 -2.040579 1.340494 7.528298 4.717937 0.971100 0.000000 -36.960101
5.248871 17.349512 1.051287 -178.683519 -63.889530 -171.246534 -12.048023 3.068376 -1.347626 -9.258376 31.891476 -14.493725 -3.245547 -1.169380 -0.884676 1.381245 10.783344 -1.370385 1.158800 -0.000000 -25.916600 8.428747 -2.030058 5.981447 3.485105 9.756930 -13.768838 3.308882 1.667593 -2.170821 1.325162 7.410622 4.703709 0.946800 0.000000 -36.852100
5.252211 17.347407 1.045537 -178.621703 -64.158633 -171.254117 -12.033415 3.036113 -1.312764 -9.236913 31.725106 -14.524999 -3.235057 -1.188029 -0.946309 1.377543 10.756656 -1.372968 1.158800 -0.000000 -25.935800 8.430533 -2.050929 5.992299 3.537759 9.697023 -13.771576 3.305978 1.673511 -2.272732 1.310559 7.305558 4.671265 0.923500 -0.000000 -36.749900
5.255484 17.345078 1.039805 -178.553489 -64.428364 -171.275458 -12.020477 3.005574 -1.280725 -9.210045 31.592704 -14.560000 -3.228824 -1.205750 -1.002525 1.368549 10.694129 -1.372570 1.154600 -0.000000 -25.980200 8.432201 -2.072241 6.001168 3.598018 9.622047 -13.781215 3.304198 1.677857 -2.345899 1.297094 7.215420 4.622461 0.902200 0.000000 -36.648600
5.258631 17.342743 1.034016 -178.482600 -64.702315 -171.306346 -12.009241 2.977017 -1.250691 -9.180359 31.491771 -14.599359 -3.226817 -1.222876 -1.056333 1.353993 10.595595 -1.363309 1.147500 -0.000000 -26.045500 8.434064 -2.094873 6.007877 3.664706 9.528264 -13.797174 3.303471 1.680718 -2.394547 1.284972 7.140575 4.563008 0.883300 -0.000001 -36.549400
5.261488 17.340638 1.028102 -178.410316 -64.985236 -171.343312 -11.999518 2.950684 -1.221138 -9.150901 31.418144 -14.646194 -3.229054 -1.239696 -1.108047 1.333732 10.460549 -1.342324 1.138099 -0.000000 -26.127000 8.436234 -2.119692 6.013187 3.736840 9.413862 -13.819301 3.303812 1.682659 -2.425161 1.274119 7.078869 4.497284 0.866800 -0.000000 -36.448600
5.264043 17.338897 1.022042 -178.339738 -65.281294 -171.383831 -11.991068 2.926752 -1.190737 -9.122561 31.363837 -14.699323 -3.234748 -1.256282 -1.158670 1.308443 10.293881 -1.307568 1.127300 -0.000000 -26.218900 8.438997 -2.146907 6.016829 3.813084 9.277721 -13.842983 3.304986 1.684262 -2.445971 1.264210 7.026031 4.430367 0.852100 0.000000 -36.344800
5.266234 17.337605 1.015882 -178.270952 -65.593617 -171.427404 -11.983715 2.905390 -1.158339 -9.094575 31.319336 -14.756061 -3.242843 -1.272484 -1.207552 1.279120 10.101750 -1.259625 1.115699 0.000000 -26.315900 8.442496 -2.176262 6.018343 3.892306 9.120622 -13.861736 3.306761 1.686315 -2.466121 1.254698 6.976126 4.366217 0.838201 0.000000 -36.235100
5.268261 17.336828 1.009755 -178.206535 -65.923292 -171.475561 -11.977131 2.886561 -1.123369 -9.064463 31.271645 -14.808833 -3.251427 -1.287915 -1.255475 1.247534 9.895706 -1.199678 1.104500 0.000000 -26.412300 8.447088 -2.206551 6.016017 3.973291 8.944444 -13.866284 3.308660 1.689260 -2.493669 1.244935 6.922796 4.308767 0.824100 0.000000 -36.121400
